# xmcd CD database file
#
# Track frame offsets:
#	150
#	14602
#	27450
#	39700
#	53045
#	61815
#	77662
#	90602
#	99812
#	110630
#	120740
#	130572
#	147297
#	156762
#	173715
#	184812
#	200750
#	213877
#
# Disc length: 3086 seconds
#
# Revision: 0
# Processed by: cddbd v1.4PL0 Copyright (c) Steve Scherf et al.
# Submitted via: CDex 1.40Beta5
#
DISCID=f20c0c12
DTITLE=Kenny Rogers - Christmas From The Heart
DYEAR=2001
DGENRE=Country
TTITLE0=Its Just Not Christmas
TTITLE1=The Christmas Song
TTITLE2=My Favorite Things
TTITLE3=White Christmas
TTITLE4=Let it Snow
TTITLE5=O Come All Ye Faithful
TTITLE6=Hey Little Christmas Tree
TTITLE7=Merry Christmas
TTITLE8=Money Isnt What Really Matters
TTITLE9=Heroes
TTITLE10=I Wanna Be A Christmas Present
TTITLE11=The Ballerina Song
TTITLE12=Help Somebody Find Their Way
TTITLE13=If I Only Had Your Heart
TTITLE14=Mister Perfect
TTITLE15=I Promise You
TTITLE16=The Toy Shoppe
TTITLE17=Til The Season Comes Round Again
EXTD=YEAR: 2001 ID3G:   2
EXTT0=
EXTT1=
EXTT2=
EXTT3=
EXTT4=
EXTT5=
EXTT6=
EXTT7=
EXTT8=
EXTT9=
EXTT10=
EXTT11=
EXTT12=
EXTT13=
EXTT14=
EXTT15=
EXTT16=
EXTT17=
PLAYORDER=
